<svg width="564" height="295" viewBox="0 0 564 295" fill="none" xmlns="http://www.w3.org/2000/svg">
<path d="M184.689 81.5977C184.691 84.6644 184.96 86.9975 185.495 88.597C186.163 90.0631 187.231 91.1955 188.698 91.9942C190.165 92.7929 192.566 93.6575 195.9 94.5879L194.503 98.1891L159.703 98.2196L158.102 96.221L159.7 93.8196C161.963 90.751 163.494 87.683 164.291 84.6156C165.222 81.4148 165.618 77.2144 165.48 72.0145L165.433 18.2146C165.43 14.8812 165.095 12.6815 164.427 11.6154C163.893 10.4159 162.759 9.8169 161.026 9.81842L158.826 9.82034C154.293 9.82431 150.894 11.2273 148.63 14.0293C146.365 16.6979 144.036 21.5666 141.642 28.6354L137.641 27.2389L137.619 2.23892L139.618 0.437168L142.019 2.23507C144.554 3.96618 149.488 4.82853 156.822 4.8221L193.422 4.79004C200.755 4.78361 205.687 3.91262 208.219 2.17707L210.618 0.374969L212.819 2.17304L212.841 27.173L208.642 28.5767C206.103 21.2456 203.698 16.3144 201.429 13.783C199.294 11.1182 196.026 9.78775 191.626 9.79161L189.026 9.79389C187.293 9.7954 186.093 10.3965 185.427 11.597C184.895 12.6642 184.63 14.8644 184.633 18.1977L184.689 81.5977ZM305.55 72.8918C305.554 77.5585 305.757 81.0917 306.159 83.4913C306.561 85.891 307.363 87.9569 308.565 89.6892C309.766 91.4215 311.635 93.4198 314.17 95.6843L312.572 98.0857L277.372 98.1165L276.169 94.5176C279.235 93.7149 281.434 92.913 282.767 92.1118C284.233 91.1772 285.165 89.9764 285.564 88.5093C286.096 86.9089 286.36 84.5753 286.358 81.5086L286.333 53.5087L250.933 53.5397L250.95 72.9397C250.954 77.6063 251.157 81.2062 251.559 83.7391C251.962 86.1388 252.697 88.2048 253.765 89.9372C254.966 91.5362 256.835 93.4679 259.37 95.7323L257.972 98.1335L222.772 98.1644L221.569 94.5654C225.968 93.3616 228.767 92.0258 229.965 90.5581C231.164 88.957 231.761 85.9565 231.758 81.5565L231.712 29.5565C231.706 23.1565 231.169 18.6903 230.1 16.1579C229.165 13.4921 226.762 10.5608 222.893 7.36422L224.49 4.76282L258.49 4.73303L259.893 7.9318C256.028 10.2019 253.564 12.3374 252.499 14.3383C251.434 16.2059 250.903 19.6063 250.908 24.5397L250.928 47.9397L286.328 47.9087L286.312 29.5087C286.306 23.1087 285.769 18.6425 284.7 16.1101C283.765 13.4442 281.362 10.513 277.493 7.31638L279.09 4.71499L313.09 4.6852L314.693 7.88379C310.828 10.1538 308.297 12.2894 307.099 14.2905C306.034 16.1581 305.503 19.5585 305.508 24.4918L305.55 72.8918ZM337.568 30.8638C337.563 25.5304 337.16 21.3308 336.357 18.2648C335.554 15.1989 334.018 12.1335 331.749 9.06886L330.147 6.87026L331.745 4.66886L375.945 4.63014C383.278 4.62371 388.211 3.75273 390.743 2.01717L393.141 0.215069L395.143 2.01332L395.165 27.0133L391.166 28.4168C388.759 21.2189 386.355 16.2877 383.953 13.6231C381.684 10.9584 378.416 9.62797 374.149 9.63171L365.149 9.63959C361.683 9.64263 359.417 10.3113 358.351 11.6456C357.285 12.8465 356.754 15.5136 356.758 19.6469L356.783 48.0469L371.183 48.0343C375.183 48.0308 378.116 47.6283 379.982 46.8266C381.981 46.0249 383.446 44.4236 384.378 42.0228L385.375 39.2219L387.977 40.8196L387.996 63.2196L383.598 64.8235L382.794 60.4242C382.258 57.6246 380.79 55.6926 378.389 54.628C375.988 53.5635 372.121 53.0335 366.787 53.0382L356.787 53.0469L356.814 83.2469C356.817 87.2469 357.42 89.9131 358.621 91.2453C359.822 92.4443 362.489 93.042 366.622 93.0383L376.422 93.0298C380.422 93.0262 383.554 91.6235 385.819 88.8215C388.216 86.0194 390.479 81.1508 392.606 74.2156L396.807 75.6119L396.828 99.6119L394.63 101.414C392.762 100.082 390.628 99.1506 388.227 98.6194C385.827 98.2215 382.493 98.0244 378.227 98.0282L328.027 98.0722L326.624 94.4734C329.956 93.5371 332.355 92.6684 333.821 91.8671C335.287 90.9325 336.286 89.7316 336.818 88.2644C337.35 86.7973 337.615 84.5304 337.612 81.4637L337.568 30.8638Z" fill="white"/>
<path d="M58 188C64.5333 189.467 69.7333 192.333 73.6 196.6C77.6 200.867 79.6 205.867 79.6 211.6C79.6 219.333 76.3333 225.533 69.8 230.2C63.2667 234.733 54.4667 237 43.4 237H1.6L0.2 233.4C3.53333 232.467 5.93333 231.6 7.4 230.8C8.86667 229.867 9.86667 228.667 10.4 227.2C10.9333 225.733 11.2 223.467 11.2 220.4V166.2C11.2 161.533 10.8 158.133 10 156C9.33333 153.867 7.66667 152 5 150.4L2.6 149L3.4 146.4C7.66667 145.067 13.1333 144 19.8 143.2C26.6 142.267 32.7333 141.8 38.2 141.8C49.9333 141.8 59.0667 144 65.6 148.4C72.2667 152.8 75.6 158.933 75.6 166.8C75.6 171.733 74 176.067 70.8 179.8C67.7333 183.4 63.4667 186.133 58 188ZM43.2 232.6C48 232.6 51.9333 230.667 55 226.8C58.2 222.933 59.8 218 59.8 212C59.8 205.867 57.7333 200.867 53.6 197C49.4667 193.133 43.6 190.533 36 189.2V186.8C42.1333 186.8 46.9333 185 50.4 181.4C54 177.8 55.8 172.933 55.8 166.8C55.8 160.667 54.3333 155.8 51.4 152.2C48.4667 148.467 44.5333 146.6 39.6 146.6C36.6667 146.6 34.4 147.6 32.8 149.6C31.2 151.467 30.4 154.133 30.4 157.6V214.8C30.4 220.267 31.5333 224.6 33.8 227.8C36.2 231 39.3333 232.6 43.2 232.6ZM100.844 169.8C100.844 164.467 100.444 160.267 99.6438 157.2C98.8438 154.133 97.3104 151.067 95.0438 148L93.4438 145.8L95.0438 143.6H139.244C146.577 143.6 151.51 142.733 154.044 141L156.444 139.2L158.444 141V166L154.444 167.4C152.044 160.2 149.644 155.267 147.244 152.6C144.977 149.933 141.71 148.6 137.444 148.6H128.444C124.977 148.6 122.71 149.267 121.644 150.6C120.577 151.8 120.044 154.467 120.044 158.6V187H134.444C138.444 187 141.377 186.6 143.244 185.8C145.244 185 146.71 183.4 147.644 181L148.644 178.2L151.244 179.8V202.2L146.844 203.8L146.044 199.4C145.51 196.6 144.044 194.667 141.644 193.6C139.244 192.533 135.377 192 130.044 192H120.044V222.2C120.044 226.2 120.644 228.867 121.844 230.2C123.044 231.4 125.71 232 129.844 232H139.644C143.644 232 146.777 230.6 149.044 227.8C151.444 225 153.71 220.133 155.844 213.2L160.044 214.6V238.6L157.844 240.4C155.977 239.067 153.844 238.133 151.444 237.6C149.044 237.2 145.71 237 141.444 237H91.2438L89.8438 233.4C93.1771 232.467 95.5771 231.6 97.0438 230.8C98.5104 229.867 99.5104 228.667 100.044 227.2C100.577 225.733 100.844 223.467 100.844 220.4V169.8ZM249.261 219C250.594 222.733 252.061 225.733 253.661 228C255.261 230.133 257.728 232.467 261.061 235L259.261 237H223.061L221.861 233.4L224.861 232.6C226.861 231.933 228.261 231.133 229.061 230.2C229.994 229.133 230.461 227.733 230.461 226C230.461 224.933 229.728 222.2 228.261 217.8L224.261 206H193.261L191.661 211C189.661 217 188.661 221.533 188.661 224.6C188.661 227.533 189.194 230.2 190.261 232.6L191.661 235L189.861 237H167.861L166.461 233.4L169.461 232.6C172.661 231.667 175.061 230.4 176.661 228.8C178.261 227.067 179.794 224.067 181.261 219.8L201.661 161C202.594 157.667 203.061 155.333 203.061 154C203.061 151.067 200.928 149 196.661 147.8L194.461 147.2L195.861 143.6H223.061L249.261 219ZM222.261 200.4L208.661 159.8L195.261 200.4H222.261ZM302.217 220.4C302.217 223.467 302.484 225.8 303.017 227.4C303.684 228.867 304.751 230 306.217 230.8C307.684 231.6 310.084 232.467 313.417 233.4L312.017 237H277.217L275.617 235L277.217 232.6C279.484 229.533 281.017 226.467 281.817 223.4C282.751 220.2 283.151 216 283.017 210.8V157C283.017 153.667 282.684 151.467 282.017 150.4C281.484 149.2 280.351 148.6 278.617 148.6H276.417C271.884 148.6 268.484 150 266.217 152.8C263.951 155.467 261.617 160.333 259.217 167.4L255.217 166V141L257.217 139.2L259.617 141C262.151 142.733 267.084 143.6 274.417 143.6H311.017C318.351 143.6 323.284 142.733 325.817 141L328.217 139.2L330.417 141V166L326.217 167.4C323.684 160.067 321.284 155.133 319.017 152.6C316.884 149.933 313.617 148.6 309.217 148.6H306.617C304.884 148.6 303.684 149.2 303.017 150.4C302.484 151.467 302.217 153.667 302.217 157V220.4ZM348.686 169.4C348.686 164.6 348.486 161 348.086 158.6C347.686 156.067 346.886 153.933 345.686 152.2C344.486 150.467 342.553 148.467 339.886 146.2L341.686 143.6H376.486L377.886 146.8C374.819 148.533 372.619 150.067 371.286 151.4C369.953 152.733 369.019 154.4 368.486 156.4C368.086 158.4 367.886 161.533 367.886 165.8V221.6C367.886 225.867 368.486 228.667 369.686 230C370.886 231.333 373.553 232 377.686 232H385.286C389.153 232 392.219 230.733 394.486 228.2C396.753 225.533 399.086 220.533 401.486 213.2L405.486 214.6V238.6L403.486 240.4C401.753 239.067 399.819 238.133 397.686 237.6C395.553 237.2 392.353 237 388.086 237H338.886L337.686 233.4C341.019 232.467 343.419 231.6 344.886 230.8C346.353 229.867 347.353 228.667 347.886 227.2C348.419 225.733 348.686 223.467 348.686 220.4V169.4ZM424.281 169.8C424.281 164.467 423.881 160.267 423.081 157.2C422.281 154.133 420.748 151.067 418.481 148L416.881 145.8L418.481 143.6H462.681C470.015 143.6 474.948 142.733 477.481 141L479.881 139.2L481.881 141V166L477.881 167.4C475.481 160.2 473.081 155.267 470.681 152.6C468.415 149.933 465.148 148.6 460.881 148.6H451.881C448.415 148.6 446.148 149.267 445.081 150.6C444.015 151.8 443.481 154.467 443.481 158.6V187H457.881C461.881 187 464.815 186.6 466.681 185.8C468.681 185 470.148 183.4 471.081 181L472.081 178.2L474.681 179.8V202.2L470.281 203.8L469.481 199.4C468.948 196.6 467.481 194.667 465.081 193.6C462.681 192.533 458.815 192 453.481 192H443.481V222.2C443.481 226.2 444.081 228.867 445.281 230.2C446.481 231.4 449.148 232 453.281 232H463.081C467.081 232 470.215 230.6 472.481 227.8C474.881 225 477.148 220.133 479.281 213.2L483.481 214.6V238.6L481.281 240.4C479.415 239.067 477.281 238.133 474.881 237.6C472.481 237.2 469.148 237 464.881 237H414.681L413.281 233.4C416.615 232.467 419.015 231.6 420.481 230.8C421.948 229.867 422.948 228.667 423.481 227.2C424.015 225.733 424.281 223.467 424.281 220.4V169.8ZM516.298 159C516.298 164.333 518.165 168.733 521.898 172.2C525.632 175.533 531.232 179.333 538.698 183.6C544.165 186.667 548.498 189.333 551.698 191.6C554.898 193.867 557.632 196.733 559.898 200.2C562.165 203.667 563.298 207.667 563.298 212.2C563.298 220.467 559.965 227 553.298 231.8C546.765 236.467 537.965 238.8 526.898 238.8C517.432 238.8 509.765 237 503.898 233.4C498.165 229.8 495.298 224.933 495.298 218.8C495.298 214.8 496.632 211.667 499.298 209.4C502.098 207 505.565 205.8 509.698 205.8C512.898 205.8 515.965 206.6 518.898 208.2C514.765 210.333 512.698 214.533 512.698 220.8C512.698 224.533 514.032 227.733 516.698 230.4C519.498 232.933 523.232 234.2 527.898 234.2C532.698 234.2 536.432 232.867 539.098 230.2C541.898 227.533 543.298 224.2 543.298 220.2C543.298 215.533 541.565 211.733 538.098 208.8C534.765 205.733 529.632 202.2 522.698 198.2C517.232 195.267 512.698 192.533 509.098 190C505.632 187.467 502.698 184.333 500.298 180.6C497.898 176.867 496.698 172.467 496.698 167.4C496.698 159.8 499.898 153.667 506.298 149C512.832 144.2 521.298 141.8 531.698 141.8C540.632 141.8 547.898 143.533 553.498 147C559.098 150.333 561.898 154.8 561.898 160.4C561.898 164 560.698 166.867 558.298 169C555.898 171 552.632 172 548.498 172C545.565 172 542.498 171.267 539.298 169.8C541.032 168.467 542.365 166.8 543.298 164.8C544.232 162.8 544.698 160.733 544.698 158.6C544.698 155.267 543.498 152.467 541.098 150.2C538.698 147.8 535.165 146.6 530.498 146.6C525.965 146.6 522.432 147.8 519.898 150.2C517.498 152.6 516.298 155.533 516.298 159Z" fill="white"/>
<path d="M172.005 293.508L171.376 294.209L158.076 294.221L157.655 292.961L159.684 292.469C160.897 292.188 161.69 291.791 162.063 291.277C162.436 290.764 162.622 289.807 162.621 288.407L162.602 266.427L156.025 270.632C155.652 270.399 155.231 269.91 154.764 269.164C154.343 268.417 153.969 267.601 153.642 266.715L168.687 260.821L169.878 261.8L169.318 262.641L169.338 285.041C169.34 286.907 169.481 288.401 169.762 289.52C170.089 290.593 170.627 291.643 171.375 292.669L172.005 293.508ZM184.843 289.017C184.844 290.277 185.172 291.28 185.826 292.026C186.526 292.772 187.413 293.145 188.487 293.144C190.587 293.142 192.196 292.021 193.314 289.78C194.432 287.492 194.989 284.365 194.986 280.398L194.842 276.478L194.562 276.409C193.817 277.856 192.744 278.977 191.345 279.772C189.946 280.566 188.336 280.964 186.516 280.966C183.996 280.968 181.942 280.106 180.354 278.381C178.766 276.656 177.97 274.463 177.968 271.803C177.966 269.75 178.478 267.883 179.503 266.202C180.528 264.521 181.95 263.213 183.77 262.278C185.589 261.343 187.618 260.875 189.858 260.873C193.638 260.869 196.626 262.407 198.822 265.485C201.018 268.516 202.119 272.645 202.123 277.872C202.128 283.145 200.848 287.3 198.284 290.335C195.72 293.324 192.198 294.821 187.718 294.825C185.105 294.827 182.934 294.269 181.207 293.15C179.526 291.985 178.684 290.539 178.683 288.813C178.682 287.366 179.334 286.222 180.64 285.381C181.992 284.54 183.859 284.095 186.239 284.046C185.306 285.213 184.841 286.871 184.843 289.017ZM189.664 278.233C191.017 278.232 192.113 277.531 192.952 276.13C193.837 274.683 194.279 272.862 194.277 270.669C194.275 268.429 193.877 266.586 193.082 265.14C192.288 263.647 191.26 262.902 190 262.903C188.647 262.904 187.528 263.628 186.642 265.076C185.803 266.523 185.385 268.367 185.387 270.607C185.389 272.847 185.787 274.69 186.582 276.136C187.376 277.535 188.404 278.234 189.664 278.233ZM225.264 267.562C225.263 266.068 224.888 264.855 224.141 263.923C223.393 262.99 222.436 262.524 221.27 262.525C219.916 262.526 218.704 263.251 217.632 264.698C216.606 266.099 215.791 268.083 215.187 270.651C214.629 273.171 214.352 276.065 214.354 279.331C214.355 280.405 214.449 281.291 214.637 281.991L214.917 281.991C215.382 279.89 216.267 278.35 217.573 277.369C218.878 276.341 220.698 275.826 223.031 275.824C225.831 275.821 228.049 276.589 229.683 278.128C231.365 279.62 232.206 281.649 232.209 284.216C232.211 287.436 231.164 290.003 229.065 291.918C226.967 293.834 224.168 294.793 220.668 294.796C218.008 294.798 215.651 294.17 213.596 292.912C211.588 291.607 210.024 289.788 208.901 287.456C207.779 285.077 207.217 282.348 207.214 279.268C207.211 275.581 207.815 272.36 209.026 269.606C210.237 266.805 211.962 264.657 214.2 263.161C216.439 261.62 219.052 260.847 222.038 260.845C224.838 260.842 227.125 261.423 228.9 262.589C230.721 263.754 231.632 265.223 231.634 266.996C231.635 268.583 230.983 269.867 229.677 270.848C228.418 271.829 226.458 272.321 223.798 272.323C224.264 271.623 224.614 270.829 224.846 269.942C225.125 269.055 225.265 268.262 225.264 267.562ZM220.723 277.996C219.37 277.997 218.25 278.675 217.365 280.029C216.526 281.383 216.108 283.133 216.11 285.28C216.112 287.66 216.463 289.526 217.164 290.879C217.912 292.185 218.94 292.837 220.246 292.836C221.693 292.835 222.812 292.134 223.604 290.733C224.443 289.333 224.861 287.395 224.859 284.922C224.857 282.775 224.483 281.096 223.735 279.883C222.987 278.624 221.983 277.995 220.723 277.996ZM237.293 277.771C237.29 274.551 237.871 271.657 239.035 269.09C240.246 266.522 241.948 264.514 244.14 263.065C246.332 261.57 248.851 260.821 251.698 260.819C255.758 260.815 258.956 262.282 261.292 265.22C263.674 268.158 264.868 272.03 264.872 276.837C264.875 280.244 264.271 283.324 263.06 286.079C261.896 288.786 260.218 290.911 258.026 292.453C255.88 293.995 253.384 294.767 250.538 294.77C246.384 294.773 243.14 293.189 240.804 290.018C238.467 286.847 237.297 282.765 237.293 277.771ZM244.363 277.835C244.367 282.548 244.954 286.305 246.123 289.104C247.292 291.856 248.95 293.231 251.096 293.229C253.196 293.227 254.828 291.826 255.993 289.025C257.203 286.177 257.807 282.443 257.803 277.823C257.799 273.203 257.189 269.47 255.973 266.625C254.804 263.779 253.169 262.357 251.069 262.359C248.923 262.361 247.267 263.786 246.103 266.634C244.939 269.435 244.359 273.168 244.363 277.835ZM280.414 282.633C280.413 282.027 280.506 281.42 280.692 280.813C280.925 280.206 281.228 279.763 281.601 279.482L293.571 278.982C293.572 280.522 293.176 281.596 292.383 282.203L280.414 282.633ZM325.882 293.374L325.253 294.074L311.953 294.086L311.532 292.826L313.561 292.334C314.774 292.053 315.567 291.656 315.94 291.142C316.313 290.629 316.499 289.672 316.498 288.272L316.478 266.292L309.902 270.498C309.529 270.265 309.108 269.775 308.641 269.029C308.22 268.282 307.846 267.466 307.519 266.58L322.564 260.687L323.754 261.666L323.195 262.506L323.215 284.906C323.216 286.773 323.358 288.266 323.639 289.386C323.966 290.459 324.504 291.508 325.251 292.534L325.882 293.374ZM338.72 288.882C338.721 290.142 339.049 291.145 339.703 291.892C340.403 292.638 341.29 293.01 342.364 293.009C344.464 293.007 346.073 291.886 347.191 289.645C348.309 287.357 348.866 284.23 348.862 280.264L348.719 276.344L348.439 276.274C347.694 277.721 346.621 278.842 345.222 279.637C343.823 280.431 342.213 280.829 340.393 280.831C337.873 280.833 335.819 279.972 334.231 278.246C332.642 276.521 331.847 274.328 331.845 271.668C331.843 269.615 332.355 267.748 333.38 266.067C334.405 264.386 335.827 263.078 337.647 262.143C339.466 261.208 341.495 260.74 343.735 260.738C347.515 260.735 350.503 262.272 352.699 265.35C354.895 268.382 355.996 272.511 356 277.737C356.005 283.011 354.725 287.165 352.161 290.201C349.597 293.19 346.075 294.686 341.595 294.69C338.982 294.692 336.811 294.134 335.084 293.016C333.403 291.85 332.561 290.404 332.56 288.678C332.559 287.231 333.211 286.087 334.517 285.246C335.869 284.405 337.736 283.96 340.116 283.911C339.183 285.079 338.718 286.736 338.72 288.882ZM343.541 278.098C344.894 278.097 345.99 277.396 346.829 275.995C347.714 274.548 348.156 272.727 348.154 270.534C348.152 268.294 347.754 266.451 346.959 265.005C346.164 263.513 345.137 262.767 343.877 262.768C342.524 262.769 341.404 263.493 340.519 264.941C339.68 266.388 339.262 268.232 339.264 270.472C339.266 272.712 339.664 274.555 340.459 276.001C341.253 277.4 342.281 278.099 343.541 278.098ZM364.812 291.17C365.465 290.562 366.117 289.582 366.769 288.228L377.6 266.518L361.15 266.533C360.683 266.02 360.309 265.297 360.028 264.364C359.747 263.431 359.607 262.427 359.606 261.354L381.026 261.335L381.867 262.525L373.557 285.422C372.905 287.196 372.58 288.643 372.581 289.763C372.581 290.649 372.792 291.559 373.213 292.492L373.704 293.332L373.144 294.032L361.524 294.042L361.103 292.783L362.083 292.502C363.249 292.174 364.159 291.73 364.812 291.17ZM390.696 268.607C390.697 269.587 390.908 270.66 391.329 271.826C391.796 272.946 392.334 273.809 392.941 274.415C390.374 274.37 388.297 273.812 386.709 272.74C385.169 271.668 384.397 270.246 384.396 268.472C384.394 266.186 385.442 264.318 387.541 262.87C389.64 261.421 392.346 260.695 395.659 260.693C399.346 260.689 402.24 261.457 404.341 262.995C406.489 264.486 407.564 266.562 407.566 269.222C407.569 271.975 406.148 274.94 403.304 278.116C400.507 281.245 396.077 284.819 390.014 288.837L408.424 288.821C408.424 289.895 408.285 290.921 408.006 291.902C407.727 292.882 407.354 293.582 406.888 294.003L384.628 294.022L383.296 291.713C387.679 287.976 391.06 284.847 393.438 282.324C395.862 279.802 397.587 277.514 398.612 275.46C399.637 273.406 400.148 271.305 400.146 269.159C400.145 267.152 399.723 265.496 398.882 264.19C398.041 262.837 396.967 262.161 395.66 262.163C394.307 262.164 393.141 262.795 392.162 264.056C391.183 265.316 390.694 266.834 390.696 268.607Z" fill="white"/>
</svg>
